<?xml version="1.0"?>
<VTKFile type="UnstructuredGrid" version="2.2">
  <UnstructuredGrid>
    <Piece NumberOfPoints="98" NumberOfCells="162">
      <Points>
        <DataArray type="Float64" NumberOfComponents="3" format="ascii">-1.148145834597592e-17 1.75 0 0.1830127018922194 1.81698729810778 0 5.385570178940217e-18 2 0 0.25 2 0 0.2068315661144281 1.613275986321048 0 0.375 1.78349364905389 0 -1.312979559540041e-17 1.5 0 0.5 2 0 0.2365253702035843 1.338451947846024 0 0.4021778788822013 1.499853300934124 0 0.625 1.78349364905389 0 0.75 2 0 -9.385348191671782e-18 1.25 0 0.5203216669241953 1.649386459899782 0 0.875 1.78349364905389 0 0.9999999999999999 2 0 1.125 1.78349364905389 0 1.25 2 0 0.1690714024750216 1.125 0 0.4999999999999995 1.299038105676657 0 0.6266353913177589 1.504742166867176 0 0.7499999999999992 1.649519052838328 0 1.374378268030395 1.791013627827125 0 1.5 2 0 -1.229293768731719e-17 0.9999999999999999 0 0.3751421891132685 1.089995092551761 0 0.9999999999999996 1.649519052838329 0 1.25 1.649519052838329 0 1.616292557637225 1.814148702653059 0 1.75 2 0 0.2214498783515617 0.8718102737875417 0 0.6246254929418709 1.082633650066103 0 0.7497472037733929 1.299114254133536 0 0.8749999999999998 1.515544456622767 0 1.49792885321255 1.650710005230531 0 1.81698729810778 1.816987298107781 0 2 2 0 -8.586193370274097e-18 0.7499999999999999 0 0.4999999999999999 0.8660254037844377 0 1.125 1.515544456622767 0 1.371762870110745 1.500689222822826 0 1.758460926472624 1.626181284752921 0 2 1.75 0 0.1546751090515898 0.6250000000000001 0 0.3557464387442466 0.6464280961043727 0 0.8730057538778327 1.083066978287001 0 0.7449795287717015 0.8632582433786685 0 0.9978322090473121 1.299756590314255 0 1.584654836712512 1.487421681517157 0 -1.215529812234141e-17 0.4999999999999999 0 0.6029680286032847 0.6357659639942344 0 1.240926287936496 1.303757569881009 0 1.511627884712751 1.284527894779508 0 1.78349364905389 1.375 0 2 1.5 0 0.2189703843774163 0.4066841311953385 0 0.4751363883357506 0.4262464933800404 0 1.113987500406043 1.086307438999682 0 0.9990470228609539 0.8654610608540245 0 0.8702308743462664 0.6465964032862089 0 -1.01592457719801e-17 0.25 0 0.7431077046717748 0.4298698794221271 0 1.34368512389047 1.084554557030739 0 1.757481718094953 1.137757659266776 0 2 1.25 0 0.1830127018922195 0.1830127018922193 0 0.3822667122569782 0.205653827118838 0 0.6197837071272976 0.2140300852192788 0 1.226139961409678 0.8654212360102794 0 1.118562114498554 0.6458050295287822 0 0.9998551029757582 0.4329439167331405 0 1.554845321272785 1.053105595660687 0 -2.403703357979457e-17 -1.015924577198009e-17 0 0.8741306178545498 0.2160936399916377 0 1.458443653024322 0.8686174571040082 0 1.725753897946338 0.8764035097051078 0 2 1 0 0.2500000000000001 -1.141608069848077e-17 0 0.5 -1.188105642864639e-17 0 0.7499999999999999 -1.199560672968878e-17 0 1.345703374819627 0.6406572826318284 0 1.244481812427332 0.4298292533411793 0 1.125 0.2165063509461096 0 0.9999999999999999 -1.201851678989727e-17 0 1.554534238807035 0.6915625615854062 0 2 0.75 0 1.530423080643751 0.4558578646011601 0 1.373903745017852 0.2151735529072444 0 1.25 -1.19445316364011e-17 0 1.78349364905389 0.625 0 2 0.5000000000000001 0 1.623940657679781 0.211693011263958 0 1.5 -1.175132276287394e-17 0 1.791930564443133 0.3755936239480158 0 2 0.2500000000000001 0 1.75 -1.01592457719801e-17 0 1.816987298107781 0.1830127018922195 0 2 0 0 </DataArray>
      </Points>
      <Cells>
        <DataArray type="Int32" Name="connectivity" format="ascii">0 1 2 2 1 3 4 1 0 3 1 5 6 4 0 5 1 4 3 5 7 8 4 6 4 9 5 5 10 7 7 10 11 12 8 6 8 9 4 9 13 5 5 13 10 11 10 14 11 14 15 15 16 17 12 18 8 19 9 8 20 13 9 10 13 21 10 21 14 14 16 15 17 16 22 17 22 23 24 18 12 8 18 25 8 25 19 20 9 19 21 13 20 14 21 26 14 26 16 16 27 22 22 28 23 23 28 29 30 18 24 25 18 30 19 25 31 32 20 19 33 21 20 26 21 33 26 27 16 27 34 22 22 34 28 28 35 29 29 35 36 37 30 24 30 38 25 32 19 31 25 38 31 32 33 20 39 26 33 39 27 26 40 34 27 28 34 41 41 35 28 36 35 42 37 43 30 30 44 38 32 31 45 38 46 31 47 33 32 39 33 47 40 27 39 48 34 40 41 34 48 42 35 41 49 43 37 30 43 44 44 50 38 47 32 45 31 46 45 50 46 38 51 39 47 51 40 39 52 48 40 41 48 53 42 41 54 55 43 49 44 43 55 44 56 50 57 47 45 45 46 58 59 46 50 57 51 47 51 52 40 53 48 52 41 53 54 60 55 49 55 56 44 56 61 50 57 45 58 58 46 59 50 61 59 57 62 51 51 62 52 63 53 52 54 53 64 60 65 55 55 66 56 67 61 56 68 57 58 69 58 59 59 61 70 68 62 57 52 62 71 52 71 63 64 53 63 72 65 60 55 65 66 56 66 67 73 61 67 69 68 58 69 59 70 70 61 73 68 74 62 62 74 71 71 75 63 64 63 76 77 65 72 66 65 77 67 66 78 79 73 67 69 80 68 81 69 70 82 70 73 80 74 68 71 74 75 63 75 76 78 66 77 79 67 78 83 73 79 81 80 69 82 81 70 82 73 83 84 74 80 75 74 84 76 75 85 86 80 81 82 87 81 88 82 83 84 80 86 75 84 89 85 75 89 87 86 81 88 87 82 84 86 89 85 89 90 91 86 87 92 87 88 86 93 89 89 93 90 91 87 92 91 93 86 90 93 94 95 91 92 91 96 93 93 96 94 95 96 91 94 96 97 97 96 95 </DataArray>
        <DataArray type="Int32" Name="offsets" format="ascii">3 6 9 12 15 18 21 24 27 30 33 36 39 42 45 48 51 54 57 60 63 66 69 72 75 78 81 84 87 90 93 96 99 102 105 108 111 114 117 120 123 126 129 132 135 138 141 144 147 150 153 156 159 162 165 168 171 174 177 180 183 186 189 192 195 198 201 204 207 210 213 216 219 222 225 228 231 234 237 240 243 246 249 252 255 258 261 264 267 270 273 276 279 282 285 288 291 294 297 300 303 306 309 312 315 318 321 324 327 330 333 336 339 342 345 348 351 354 357 360 363 366 369 372 375 378 381 384 387 390 393 396 399 402 405 408 411 414 417 420 423 426 429 432 435 438 441 444 447 450 453 456 459 462 465 468 471 474 477 480 483 486 </DataArray>
        <DataArray type="Int8" Name="types" format="ascii">69 69 69 69 69 69 69 69 69 69 69 69 69 69 69 69 69 69 69 69 69 69 69 69 69 69 69 69 69 69 69 69 69 69 69 69 69 69 69 69 69 69 69 69 69 69 69 69 69 69 69 69 69 69 69 69 69 69 69 69 69 69 69 69 69 69 69 69 69 69 69 69 69 69 69 69 69 69 69 69 69 69 69 69 69 69 69 69 69 69 69 69 69 69 69 69 69 69 69 69 69 69 69 69 69 69 69 69 69 69 69 69 69 69 69 69 69 69 69 69 69 69 69 69 69 69 69 69 69 69 69 69 69 69 69 69 69 69 69 69 69 69 69 69 69 69 69 69 69 69 69 69 69 69 69 69 69 69 69 69 69 69 </DataArray>
      </Cells>
      <CellData>
        <DataArray type="UInt8" Name="vtkGhostType" format="ascii" RangeMin="0" RangeMax="1">0 0 0 0 0 0 0 0 0 0 0 0 0 0 0 0 0 0 0 0 0 0 0 0 0 0 0 0 0 0 0 0 0 0 0 0 0 0 0 0 0 0 0 0 0 0 0 0 0 0 0 0 0 0 0 0 0 0 0 0 0 0 0 0 0 0 0 0 0 0 0 0 0 0 0 0 0 0 0 0 0 0 0 0 0 0 0 0 0 0 0 0 0 0 0 0 0 0 0 0 0 0 0 0 0 0 0 0 0 0 0 0 0 0 0 0 0 0 0 0 0 0 0 0 0 0 0 0 0 0 0 0 0 0 0 0 0 0 0 0 0 0 0 0 0 0 0 0 0 0 0 0 0 0 0 0 0 0 0 0 0 0 </DataArray>
        <DataArray type="Int64" IdType="1" Name="vtkOriginalCellIds" format="ascii" RangeMin="0" RangeMax="161">0 1 2 3 4 5 6 7 8 9 10 11 12 13 14 15 16 17 18 19 20 21 22 23 24 25 26 27 28 29 30 31 32 33 34 35 36 37 38 39 40 41 42 43 44 45 46 47 48 49 50 51 52 53 54 55 56 57 58 59 60 61 62 63 64 65 66 67 68 69 70 71 72 73 74 75 76 77 78 79 80 81 82 83 84 85 86 87 88 89 90 91 92 93 94 95 96 97 98 99 100 101 102 103 104 105 106 107 108 109 110 111 112 113 114 115 116 117 118 119 120 121 122 123 124 125 126 127 128 129 130 131 132 133 134 135 136 137 138 139 140 141 142 143 144 145 146 147 148 149 150 151 152 153 154 155 156 157 158 159 160 161 </DataArray>
      </CellData>
      <PointData Scalars="u">
        <DataArray type="Int64" IdType="1" Name="vtkOriginalPointIds" format="ascii" RangeMin="0" RangeMax="97">0 1 2 3 4 5 6 7 8 9 10 11 12 13 14 15 16 17 18 19 20 21 22 23 24 25 26 27 28 29 30 31 32 33 34 35 36 37 38 39 40 41 42 43 44 45 46 47 48 49 50 51 52 53 54 55 56 57 58 59 60 61 62 63 64 65 66 67 68 69 70 71 72 73 74 75 76 77 78 79 80 81 82 83 84 85 86 87 88 89 90 91 92 93 94 95 96 97 </DataArray>
        <DataArray type="UInt8" Name="vtkGhostType" format="ascii" RangeMin="0" RangeMax="0">0 0 0 0 0 0 0 0 0 0 0 0 0 0 0 0 0 0 0 0 0 0 0 0 0 0 0 0 0 0 0 0 0 0 0 0 0 0 0 0 0 0 0 0 0 0 0 0 0 0 0 0 0 0 0 0 0 0 0 0 0 0 0 0 0 0 0 0 0 0 0 0 0 0 0 0 0 0 0 0 0 0 0 0 0 0 0 0 0 0 0 0 0 0 0 0 0 0 </DataArray>
        <DataArray type="Float64" Name="u" format="ascii">7.125010753002706 7.636410720186246 9.000013582740264 9.06251367706485 6.248071998305042 7.502377513300026 5.500008300563493 9.250013960038604 4.638795248096635 5.660812081006842 7.752289143786241 9.56251443166153 4.125006225422617 6.711663948552091 8.127363709044282 10.00001509193363 8.627289067588839 10.56251594085489 3.559740141045908 4.62490272266213 5.921074709144555 7.004277749279779 9.304340306168196 11.25001697842533 3.000004527580086 3.516772741208808 7.441745078313553 8.004274746457861 10.19464680275177 12.06251820464494 2.569058646793152 3.734248793017893 4.937425648503746 6.359279986372132 8.693501975934751 10.90424577458494 13.00001961951371 2.125003207035895 2.749904304172411 6.859299888256081 7.385794381284557 9.381021004533503 11.12501678977616 1.805130203132793 1.962215989347773 4.108131277274998 3.045336716918443 5.374337796540715 7.935953902916596 1.500002263790043 2.171889604316493 5.939416971758357 6.584979141559288 7.962043970532435 9.500014337336944 1.378689177749303 1.589068032206979 4.60104928666527 3.496081783665253 2.593409060736004 1.125001697842533 1.921723817536365 5.157985926073827 6.67766718874601 8.125012262196069 1.100458423159669 1.230678994472949 1.475711728675216 4.00129021594258 3.085264205830549 2.374541640021282 5.63560082239851 1.000001509193363 1.857456350298263 4.636046818935672 5.514360754619908 7.000010564353538 1.062501603517948 1.250001886491704 1.562502358114629 3.631762140358933 2.918204097186683 2.359337558957662 2.000003018386725 4.373052035670506 6.125009243809346 3.75777895003775 2.98018667928428 2.562503867307991 4.962038618971301 5.500008300563494 3.726770542191203 3.250004904878427 4.493127537782656 5.125007734615983 4.062506131098035 4.368373583471439 5.000007545966814 </DataArray>
      </PointData>
    </Piece>
  </UnstructuredGrid>
</VTKFile>
