$MeshFormat
4.1 0 8
$EndMeshFormat
$Entities
4 4 1 0
1 0 0 0 0 
2 2 0 0 0 
3 2 2 0 0 
4 0 2 0 0 
1 -9.999999994736442e-08 -1e-07 -1e-07 2.0000001 1e-07 1e-07 0 2 1 -2 
2 1.9999999 -9.999999994736442e-08 -1e-07 2.0000001 2.0000001 1e-07 0 2 2 -3 
3 -9.999999994736442e-08 1.9999999 -1e-07 2.0000001 2.0000001 1e-07 0 2 3 -4 
4 -1e-07 -9.999999994736442e-08 -1e-07 1e-07 2.0000001 1e-07 0 2 4 -1 
1 -9.999999994736442e-08 -9.999999994736442e-08 -1e-07 2.0000001 2.0000001 1e-07 1 1 4 1 2 3 4 
$EndEntities
$Nodes
9 98 1 98
0 1 0 1
1
0 0 0
0 2 0 1
2
2 0 0
0 3 0 1
3
2 2 0
0 4 0 1
4
0 2 0
1 1 0 7
5
6
7
8
9
10
11
0.2500000000000001 0 0
0.5000000000000001 0 0
0.75 0 0
1 0 0
1.25 0 0
1.5 0 0
1.75 0 0
1 2 0 7
12
13
14
15
16
17
18
2 0.2500000000000001 0
2 0.5000000000000001 0
2 0.75 0
2 1 0
2 1.25 0
2 1.5 0
2 1.75 0
1 3 0 7
19
20
21
22
23
24
25
1.75 2 0
1.5 2 0
1.25 2 0
1 2 0
0.75 2 0
0.5 2 0
0.25 2 0
1 4 0 7
26
27
28
29
30
31
32
0 1.75 0
0 1.5 0
0 1.25 0
0 1 0
0 0.75 0
0 0.5 0
0 0.25 0
2 1 0 66
33
34
35
36
37
38
39
40
41
42
43
44
45
46
47
48
49
50
51
52
53
54
55
56
57
58
59
60
61
62
63
64
65
66
67
68
69
70
71
72
73
74
75
76
77
78
79
80
81
82
83
84
85
86
87
88
89
90
91
92
93
94
95
96
97
98
0.2214498783515617 0.8718102737875417 0
1.125 0.2165063509461096 0
1.757481718094953 1.137757659266776 0
0.875 1.78349364905389 0
0.6197837071272975 0.2140300852192788 0
1.78349364905389 0.625 0
1.374378268030395 1.791013627827125 0
0.2365253702035843 1.338451947846024 0
1.623940657679781 0.211693011263958 0
0.2189703843774163 0.4066841311953385 0
1.758460926472624 1.626181284752921 0
0.375 1.78349364905389 0
0.8741306178545496 0.2160936399916377 0
0.9998551029757583 0.4329439167331406 0
1.244481812427332 0.4298292533411794 0
1.118562114498554 0.6458050295287823 0
0.8702308743462662 0.6465964032862088 0
0.999047022860954 0.8654610608540246 0
1.226139961409678 0.8654212360102795 0
1.113987500406043 1.086307438999682 0
0.8730057538778325 1.083066978287001 0
0.9978322090473122 1.299756590314255 0
1.240926287936496 1.303757569881009 0
0.7497472037733928 1.299114254133536 0
0.6246254929418709 1.082633650066103 0
1.125 1.515544456622767 0
0.4999999999999994 1.299038105676657 0
0.626635391317759 1.504742166867176 0
1.371762870110745 1.500689222822826 0
1.511627884712751 1.284527894779508 0
0.3751421891132685 1.089995092551761 0
0.5 0.8660254037844378 0
0.3557464387442466 0.6464280961043727 0
0.6029680286032847 0.6357659639942344 0
0.4751363883357506 0.4262464933800404 0
0.8749999999999996 1.515544456622767 0
1.78349364905389 1.375 0
1.554845321272785 1.053105595660687 0
1.725753897946338 0.8764035097051077 0
1.554534238807035 0.6915625615854062 0
0.625 1.78349364905389 0
0.7431077046717747 0.429869879422127 0
0.7449795287717014 0.8632582433786684 0
1.373903745017852 0.2151735529072444 0
1.125 1.78349364905389 0
1.530423080643751 0.4558578646011602 0
1.791930564443133 0.3755936239480158 0
1.616292557637225 1.814148702653059 0
0.2068315661144281 1.613275986321048 0
0.3822667122569781 0.205653827118838 0
1.584654836712512 1.487421681517157 0
0.4021778788822012 1.499853300934124 0
1.345703374819627 0.6406572826318283 0
0.1690714024750216 1.125 0
1.34368512389047 1.084554557030739 0
0.1546751090515898 0.625 0
1.81698729810778 1.816987298107781 0
0.1830127018922195 0.1830127018922193 0
1.816987298107781 0.1830127018922195 0
0.1830127018922193 1.81698729810778 0
1.458443653024322 0.8686174571040081 0
0.9999999999999997 1.649519052838329 0
1.25 1.649519052838329 0
0.7499999999999991 1.649519052838328 0
0.5203216669241952 1.649386459899782 0
1.49792885321255 1.650710005230531 0
$EndNodes
$Elements
1 162 1 162
2 1 2 162
1 78 79 38 
2 72 78 38 
3 35 69 62 
4 40 63 59 
5 62 70 35 
6 40 86 63 
7 15 71 14 
8 42 67 65 
9 37 74 67 
10 65 88 42 
11 35 71 15 
12 14 71 38 
13 33 65 64 
14 33 64 63 
15 49 75 66 
16 67 74 66 
17 41 79 78 
18 70 71 35 
19 66 75 64 
20 66 74 49 
21 70 93 71 
22 71 93 72 
23 69 83 62 
24 59 84 40 
25 65 66 64 
26 81 84 44 
27 84 97 44 
28 72 85 78 
29 71 72 38 
30 65 67 66 
31 67 82 37 
32 44 73 24 
33 52 54 53 
34 56 68 60 
35 16 69 35 
36 21 77 39 
37 23 73 36 
38 48 51 50 
39 55 61 58 
40 8 45 7 
41 7 45 37 
42 41 78 76 
43 56 59 57 
44 10 76 9 
45 9 76 34 
46 16 35 15 
47 17 69 16 
48 18 43 17 
49 43 69 17 
50 21 39 20 
51 22 77 21 
52 23 36 22 
53 36 77 22 
54 24 73 23 
55 25 44 24 
56 45 74 37 
57 52 53 50 
58 57 75 53 
59 55 58 54 
60 54 68 56 
61 58 68 54 
62 55 62 61 
63 63 64 57 
64 9 34 8 
65 34 45 8 
66 11 41 10 
67 14 38 13 
68 28 40 27 
69 30 33 29 
70 32 42 31 
71 34 47 46 
72 34 76 47 
73 46 74 45 
74 49 74 46 
75 76 78 47 
76 53 75 50 
77 64 75 57 
78 41 76 10 
79 34 46 45 
80 47 48 46 
81 48 49 46 
82 48 50 49 
83 51 52 50 
84 7 37 6 
85 54 56 53 
86 56 60 59 
87 50 75 49 
88 52 55 54 
89 56 57 53 
90 59 63 57 
91 62 87 70 
92 80 98 43 
93 43 98 83 
94 13 79 12 
95 20 80 19 
96 27 81 26 
97 63 86 33 
98 6 82 5 
99 37 82 6 
100 33 88 65 
101 39 80 20 
102 40 81 27 
103 38 79 13 
104 51 93 87 
105 42 82 67 
106 48 85 51 
107 78 85 47 
108 28 86 40 
109 33 86 29 
110 55 87 62 
111 51 87 52 
112 42 88 31 
113 30 88 33 
114 4 92 25 
115 1 90 32 
116 5 90 1 
117 2 91 11 
118 3 89 18 
119 19 89 3 
120 26 92 4 
121 12 91 2 
122 85 93 51 
123 43 83 69 
124 62 83 61 
125 60 84 59 
126 87 93 70 
127 47 85 48 
128 40 84 81 
129 29 86 28 
130 52 87 55 
131 72 93 85 
132 81 92 26 
133 79 91 12 
134 80 89 19 
135 31 88 30 
136 11 91 41 
137 32 90 42 
138 25 92 44 
139 18 89 43 
140 82 90 5 
141 96 97 60 
142 36 96 94 
143 58 95 94 
144 94 96 68 
145 94 95 77 
146 68 96 60 
147 73 96 36 
148 61 95 58 
149 36 94 77 
150 58 94 68 
151 77 95 39 
152 73 97 96 
153 44 97 73 
154 41 91 79 
155 43 89 80 
156 44 92 81 
157 61 98 95 
158 95 98 39 
159 42 90 82 
160 39 98 80 
161 60 97 84 
162 83 98 61 
$EndElements
